# xmcd
#
# Track frame offsets:
#	150
#	26610
#	47791
#	66484
#	85298
#	104767
#	120987
#	137713
#	153297
#	170933
#	185661
#	198827
#	213851
#	230147
#	252501
#	273250
#	289431
#	311021
#	332146
#
# Disc length: 4688 seconds
#
# Revision: 1
# Processed by: cddbd v1.5.2PL0 Copyright (c) Steve Scherf et al.
# Submitted via: audiograbber 1.83.01
#
DISCID=2b124e13
DTITLE=Various Artist - Solid Pop - Vol.2
DYEAR=1900
DGENRE=Pop
TTITLE0=John Miles - Music
TTITLE1=Andrew Gold - Thank You For Being A Friend
TTITLE2=Tears For Fears - Everybody Wants To Rule The World
TTITLE3=Dan Hartman - I Can Dream About You
TTITLE4=ABC - When Smokey Sings
TTITLE5=Joan Armatrading - Drop The Pilot
TTITLE6=Chesney Hawkes - The One And Only
TTITLE7=Electric Light Orchestra - Calling America
TTITLE8=Joe Jackson - The Harder They Come
TTITLE9=Donovan - Hurdy Gurdy Man
TTITLE10=Randy Newman - Short People
TTITLE11=10CC - The Things We Do For Love
TTITLE12=Blind Melon - No Rain
TTITLE13=Bruce Hornsby And The Range - The Way It Is
TTITLE14=Elvin Bishop - Fooled Around And Fell In Love
TTITLE15=Mike And The Mechanics - Over My Shoulder
TTITLE16=Sophie B.Hawkins - Right Beside You
TTITLE17=Duran Duran - Ordinary World
TTITLE18=Martika - Toy Soldiers
EXTD=
EXTT0=
EXTT1=
EXTT2=
EXTT3=
EXTT4=
EXTT5=
EXTT6=
EXTT7=
EXTT8=
EXTT9=
EXTT10=
EXTT11=
EXTT12=
EXTT13=
EXTT14=
EXTT15=
EXTT16=
EXTT17=
EXTT18=
PLAYORDER=
